<svg xmlns="http://www.w3.org/2000/svg" viewBox="0 0 512 512" width="512" height="512" xmlns:c2pa="http://c2pa.org/manifest"><metadata><c2pa:manifest>AAAWgmp1bWIAAAAeanVtZGMycGEAEQAQgAAAqgA4m3EDYzJwYQAAABZcanVtYgAAAEdqdW1kYzJtYQARABCAAACqADibcQN1cm46YzJwYTo3ZWZiMThmMi1mYjE3LTQ3NWQtYmJjYi1lMTNlYjg3NzJiMmEAAAADl2p1bWIAAAApanVtZGMyYXMAEQAQgAAAqgA4m3EDYzJwYS5hc3NlcnRpb25zAAAAALxqdW1iAAAARGp1bWRjYm9yABEAEIAAAKoAOJtxE2MycGEuaW5ncmVkaWVudC52MwAAAAAYYzJzaE3YQMuoW1L0/KIK2szO3rsAAABwY2JvcqNpZGM6Zm9ybWF0bWltYWdlL3N2Zyt4bWxqaW5zdGFuY2VJRHgseG1wOmlpZDplMTE0YzIwZS1lOTAzLTQzOTItOTljZi00MzBlMTE0NDFiMGVscmVsYXRpb25zaGlwaHBhcmVudE9mAAAB4mp1bWIAAABBanVtZGNib3IAEQAQgAAAqgA4m3ETYzJwYS5hY3Rpb25zLnYyAAAAABhjMnNoPLQLkSi8vR+K75JjPnMCswAAAZljYm9yomdhY3Rpb25zgqJmYWN0aW9ua2MycGEub3BlbmVkanBhcmFtZXRlcnOha2luZ3JlZGllbnRzgaJjdXJseC1zZWxmI2p1bWJmPWMycGEuYXNzZXJ0aW9ucy9jMnBhLmluZ3JlZGllbnQudjNkaGFzaFggmGmRk8OzRPdZNsHKG6QW4YMw+y9T5HK+D5xae2CKkjKkZmFjdGlvbngdY29tLmFudGhyb3BpYy5jbGF1ZGUucHJvdmlkZWRqcGFyYW1ldGVyc6F4H2NvbS5hbnRocm9waWMub3JpZ2luLWNvbmZpZGVuY2VndW5rbm93bmtkZXNjcmlwdGlvbnhmQ2xhdWRlIHByb3ZpZGVkIHRoaXMgZmlsZSBhdCB0aGUgcmVxdWVzdCBvZiBhIHVzZXIgYW5kIG1heSBoYXZlIGNyZWF0ZWQgb3IgbW9kaWZpZWQgdGhlIGZpbGUgY29udGVudHMubXNvZnR3YXJlQWdlbnShZG5hbWVmQ2xhdWRlcmFsbEFjdGlvbnNJbmNsdWRlZPUAAADIanVtYgAAAEBqdW1kY2JvcgARABCAAACqADibcRNjMnBhLmhhc2guZGF0YQAAAAAYYzJzaPp1+XlqjExAAZ46r6sroUIAAACAY2JvcqVjYWxnZnNoYTI1NmNwYWRNAAAAAAAAAAAAAAAAAGRoYXNoWCCjfgFJ74ZcSPvY4G7T/DsTSphmf2t3qjtTYnsnhd6XsmRuYW1lbmp1bWJmIG1hbmlmZXN0amV4Y2x1c2lvbnOBomVzdGFydBiWZmxlbmd0aBkeBAAAAj5qdW1iAAAAJ2p1bWRjMmNsABEAEIAAAKoAOJtxA2MycGEuY2xhaW0udjIAAAACD2Nib3KlY2FsZ2ZzaGEyNTZpc2lnbmF0dXJleE1zZWxmI2p1bWJmPS9jMnBhL3VybjpjMnBhOjdlZmIxOGYyLWZiMTctNDc1ZC1iYmNiLWUxM2ViODc3MmIyYS9jMnBhLnNpZ25hdHVyZWppbnN0YW5jZUlEeCx4bXA6aWlkOmZjNjMwYTc2LWI2NDItNDgyMS05ZjYyLTRmM2M2YTA1ZDFjMHJjcmVhdGVkX2Fzc2VydGlvbnODomN1cmx4LXNlbGYjanVtYmY9YzJwYS5hc3NlcnRpb25zL2MycGEuaW5ncmVkaWVudC52M2RoYXNoWCCYaZGTw7NE91k2wcobpBbhgzD7L1Pkcr4PnFp7YIqSMqJjdXJseCpzZWxmI2p1bWJmPWMycGEuYXNzZXJ0aW9ucy9jMnBhLmFjdGlvbnMudjJkaGFzaFggf/d102FQi870AgyqHTou0GX4TlNieVNlj66UuafVEaGiY3VybHgpc2VsZiNqdW1iZj1jMnBhLmFzc2VydGlvbnMvYzJwYS5oYXNoLmRhdGFkaGFzaFggDyc1L7XOZrEkgmve1bOE3xPq9E66ZtTjlIcXSUcRI/B0Y2xhaW1fZ2VuZXJhdG9yX2luZm+jZG5hbWVvQW50aHJvcGljIEZpbGVzZ3ZlcnNpb25lMS4wLjBrc3BlY1ZlcnNpb25lMi40LjAAABA4anVtYgAAAChqdW1kYzJjcwARABCAAACqADibcQNjMnBhLnNpZ25hdHVyZQAAABAIY2JvctKEWQISogEmGCFZAgowggIGMIIBjaADAgECAhRA5aAK7sI50L64g/oGQgU9Z1UTADAKBggqhkjOPQQDAzBJMRcwFQYDVQQKEw5BbnRocm9waWMsIFBCQzEuMCwGA1UEAxMlQW50aHJvcGljIENvbnRlbnQgQ3JlZGVudGlhbHMgUm9vdCBDQTAeFw0yNjA4MDcxODQzNTZaFw0yODA4MDYxOTQzNTZaMEQxFzAVBgNVBAoTDkFudGhyb3BpYywgUEJDMSkwJwYDVQQDEyBBbnRocm9waWMgQ2xhdWRlIENvbnRlbnQgU2lnbmluZzBZMBMGByqGSM49AgEGCCqGSM49AwEHA0IABJh6CmvLUBgFFNU0vUKlOVtE6djd17L5SuwX0LemFisBM3dkd/3cyjxFA3Qo5S46fX0/ihY0VZ7mfb9KF703t5OjWDBWMA4GA1UdDwEB/wQEAwIHgDAVBgNVHSUEDjAMBgorBgEEAYPoXgIBMAwGA1UdEwEB/wQCMAAwHwYDVR0jBBgwFoAUzlHiBIFOZFsj+OPEz5o+nMHXXMIwCgYIKoZIzj0EAwMDZwAwZAIwMXMdFJ4BetLLVY7ORuE9noqbbAZOZn/aArXyTwFAZfKrPzxF2vPoJNf1+UCdg1XGAjBwX1zd9WGqYkqmL5SFqw1QySjr1zJfpJM9+1rdDwSPLMOPOjKuiXjoU/pUUeG9RwmhY3BhZFkNngAAAAAAAAAAAAAAAAAAAAAAAAAAAAAAAAAAAAAAAAAAAAAAAAAAAAAAAAAAAAAAAAAAAAAAAAAAAAAAAAAAAAAAAAAAAAAAAAAAAAAAAAAAAAAAAAAAAAAAAAAAAAAAAAAAAAAAAAAAAAAAAAAAAAAAAAAAAAAAAAAAAAAAAAAAAAAAAAAAAAAAAAAAAAAAAAAAAAAAAAAAAAAAAAAAAAAAAAAAAAAAAAAAAAAAAAAAAAAAAAAAAAAAAAAAAAAAAAAAAAAAAAAAAAAAAAAAAAAAAAAAAAAAAAAAAAAAAAAAAAAAAAAAAAAAAAAAAAAAAAAAAAAAAAAAAAAAAAAAAAAAAAAAAAAAAAAAAAAAAAAAAAAAAAAAAAAAAAAAAAAAAAAAAAAAAAAAAAAAAAAAAAAAAAAAAAAAAAAAAAAAAAAAAAAAAAAAAAAAAAAAAAAAAAAAAAAAAAAAAAAAAAAAAAAAAAAAAAAAAAAAAAAAAAAAAAAAAAAAAAAAAAAAAAAAAAAAAAAAAAAAAAAAAAAAAAAAAAAAAAAAAAAAAAAAAAAAAAAAAAAAAAAAAAAAAAAAAAAAAAAAAAAAAAAAAAAAAAAAAAAAAAAAAAAAAAAAAAAAAAAAAAAAAAAAAAAAAAAAAAAAAAAAAAAAAAAAAAAAAAAAAAAAAAAAAAAAAAAAAAAAAAAAAAAAAAAAAAAAAAAAAAAAAAAAAAAAAAAAAAAAAAAAAAAAAAAAAAAAAAAAAAAAAAAAAAAAAAAAAAAAAAAAAAAAAAAAAAAAAAAAAAAAAAAAAAAAAAAAAAAAAAAAAAAAAAAAAAAAAAAAAAAAAAAAAAAAAAAAAAAAAAAAAAAAAAAAAAAAAAAAAAAAAAAAAAAAAAAAAAAAAAAAAAAAAAAAAAAAAAAAAAAAAAAAAAAAAAAAAAAAAAAAAAAAAAAAAAAAAAAAAAAAAAAAAAAAAAAAAAAAAAAAAAAAAAAAAAAAAAAAAAAAAAAAAAAAAAAAAAAAAAAAAAAAAAAAAAAAAAAAAAAAAAAAAAAAAAAAAAAAAAAAAAAAAAAAAAAAAAAAAAAAAAAAAAAAAAAAAAAAAAAAAAAAAAAAAAAAAAAAAAAAAAAAAAAAAAAAAAAAAAAAAAAAAAAAAAAAAAAAAAAAAAAAAAAAAAAAAAAAAAAAAAAAAAAAAAAAAAAAAAAAAAAAAAAAAAAAAAAAAAAAAAAAAAAAAAAAAAAAAAAAAAAAAAAAAAAAAAAAAAAAAAAAAAAAAAAAAAAAAAAAAAAAAAAAAAAAAAAAAAAAAAAAAAAAAAAAAAAAAAAAAAAAAAAAAAAAAAAAAAAAAAAAAAAAAAAAAAAAAAAAAAAAAAAAAAAAAAAAAAAAAAAAAAAAAAAAAAAAAAAAAAAAAAAAAAAAAAAAAAAAAAAAAAAAAAAAAAAAAAAAAAAAAAAAAAAAAAAAAAAAAAAAAAAAAAAAAAAAAAAAAAAAAAAAAAAAAAAAAAAAAAAAAAAAAAAAAAAAAAAAAAAAAAAAAAAAAAAAAAAAAAAAAAAAAAAAAAAAAAAAAAAAAAAAAAAAAAAAAAAAAAAAAAAAAAAAAAAAAAAAAAAAAAAAAAAAAAAAAAAAAAAAAAAAAAAAAAAAAAAAAAAAAAAAAAAAAAAAAAAAAAAAAAAAAAAAAAAAAAAAAAAAAAAAAAAAAAAAAAAAAAAAAAAAAAAAAAAAAAAAAAAAAAAAAAAAAAAAAAAAAAAAAAAAAAAAAAAAAAAAAAAAAAAAAAAAAAAAAAAAAAAAAAAAAAAAAAAAAAAAAAAAAAAAAAAAAAAAAAAAAAAAAAAAAAAAAAAAAAAAAAAAAAAAAAAAAAAAAAAAAAAAAAAAAAAAAAAAAAAAAAAAAAAAAAAAAAAAAAAAAAAAAAAAAAAAAAAAAAAAAAAAAAAAAAAAAAAAAAAAAAAAAAAAAAAAAAAAAAAAAAAAAAAAAAAAAAAAAAAAAAAAAAAAAAAAAAAAAAAAAAAAAAAAAAAAAAAAAAAAAAAAAAAAAAAAAAAAAAAAAAAAAAAAAAAAAAAAAAAAAAAAAAAAAAAAAAAAAAAAAAAAAAAAAAAAAAAAAAAAAAAAAAAAAAAAAAAAAAAAAAAAAAAAAAAAAAAAAAAAAAAAAAAAAAAAAAAAAAAAAAAAAAAAAAAAAAAAAAAAAAAAAAAAAAAAAAAAAAAAAAAAAAAAAAAAAAAAAAAAAAAAAAAAAAAAAAAAAAAAAAAAAAAAAAAAAAAAAAAAAAAAAAAAAAAAAAAAAAAAAAAAAAAAAAAAAAAAAAAAAAAAAAAAAAAAAAAAAAAAAAAAAAAAAAAAAAAAAAAAAAAAAAAAAAAAAAAAAAAAAAAAAAAAAAAAAAAAAAAAAAAAAAAAAAAAAAAAAAAAAAAAAAAAAAAAAAAAAAAAAAAAAAAAAAAAAAAAAAAAAAAAAAAAAAAAAAAAAAAAAAAAAAAAAAAAAAAAAAAAAAAAAAAAAAAAAAAAAAAAAAAAAAAAAAAAAAAAAAAAAAAAAAAAAAAAAAAAAAAAAAAAAAAAAAAAAAAAAAAAAAAAAAAAAAAAAAAAAAAAAAAAAAAAAAAAAAAAAAAAAAAAAAAAAAAAAAAAAAAAAAAAAAAAAAAAAAAAAAAAAAAAAAAAAAAAAAAAAAAAAAAAAAAAAAAAAAAAAAAAAAAAAAAAAAAAAAAAAAAAAAAAAAAAAAAAAAAAAAAAAAAAAAAAAAAAAAAAAAAAAAAAAAAAAAAAAAAAAAAAAAAAAAAAAAAAAAAAAAAAAAAAAAAAAAAAAAAAAAAAAAAAAAAAAAAAAAAAAAAAAAAAAAAAAAAAAAAAAAAAAAAAAAAAAAAAAAAAAAAAAAAAAAAAAAAAAAAAAAAAAAAAAAAAAAAAAAAAAAAAAAAAAAAAAAAAAAAAAAAAAAAAAAAAAAAAAAAAAAAAAAAAAAAAAAAAAAAAAAAAAAAAAAAAAAAAAAAAAAAAAAAAAAAAAAAAAAAAAAAAAAAAAAAAAAAAAAAAAAAAAAAAAAAAAAAAAAAAAAAAAAAAAAAAAAAAAAAAAAAAAAAAAAAAAAAAAAAAAAAAAAAAAAAAAAAAAAAAAAAAAAAAAAAAAAAAAAAAAAAAAAAAAAAAAAAAAAAAAAAAAAAAAAAAAAAAAAAAAAAAAAAAAAAAAAAAAAAAAAAAAAAAAAAAAAAAAAAAAAAAAAAAAAAAAAAAAAAAAAAAAAAAAAAAAAAAAAAAAAAAAAAAAAAAAAAAAAAAAAAAAAAAAAAAAAAAAAAAAAAAAAAAAAAAAAAAAAAAAAAAAAAAAAAAAAAAAAAAAAAAAAAAAAAAAAAAAAAAAAAAAAAAAAAAAAAAAAAAAAAAAAAAAAAAAAAAAAAAAAAAAAAAAAAAAAAAAAAAAAAAAAAAAAAAAAAAAAAAAAAAAAAAAAAAAAAAAAAAAAAAAAAAAAAAAAAAAAAAAAAAAAAAAAAAAAAAAAAAAAAAAAAAAAAAAAAAAAAAAAAAAAAAAAAAAAAAAAAAAAAAAAAAAAAAAAAAAAAAAAAAAAAAAAAAAAAAAAAAAAAAAAAAAAAAAAAAAAAAAAAAAAAAAAAAAAAAAAAAAAAAAAAAAAAAAAAAAAAAAAAAAAAAAAAAAAAAAAAAAAAAAAAAAAAAAAAAAAAAAAAAAAAAAAAAAAAAAAAAAAAAAAAAAAAAAAAAAAAAAAAAAAAAAAAAAAAAAAAAAAAAAAAAAAAAAAAAAAAAAAAAAAAAAAAAAAAAAAAAAAAAAAAAAAAAAAAAAAAAAAAAAAAAAAAAAAAAAAAAAAAAAAAAAAAAAAAAAAAAAAAAAAAAAAAAAAAAAAAAAAAAAAAAAAAAAAAAAAAAAAAAAAAAAAAAAAAAAAAAAAAAAAAAAAAAAAAAAAAAAAAAAAAAAAAAAAAAAAAAAAAAAAAAAAAAAAAAAAAAAAAAAAAAAAAAAAAAAAAAAAAAAAAAAAAAAAAAAAAAAAAAAAAAAAAAAAAAAAAAAAAAAAAAAAAAAAAAAAAAAAAAAAAAAAAAAAAAAAAAAAAAAAAAAAAAAAAAAAAAAAAAAAAAAAAAAAAAAAAAAAAAAAAAAAAAAAAAAAAAAAAAAAAAAAAAAAAAAAAAAAAAAAAAAAAAAAAAAAAAAAAAAAAAAAAAAAAAAAAAAAAAAAAAAAAAAAAAAAAAAAAAAAAAAAAAAAAAAAAAAAAAAAAAAAAAAAAAAAAAAAAAAAAAAAAAAAAAAAAAAAAAAAAAAAAAAAAAAAAAAAAAAAAAAAAAAAAAAAAAAAAAAAAAAAAAAAAAAAAAAAAAAAAAAAAAAAAAAAAAAAAAAAAAAAAAAAAAAAAAAAAAAAAAAAAAAAAAAAAAAAAAAAAAAAAAAAAAAAAAAAAAAAAAAAAAAAAAAAAAAAAAAAAAAAAAAAAAAAAAAAAAAAAAAAAAAAAAAAAAAAAAAAAAAAAAAAAAAAAAAAAAAAAAAAAAAAAAAAAAAAAAAAAAAAAAAAAAAAAAAAAAAAAAAAAAAAAAAAAAAAAAAAAAAAAAAAAAAAAAAAAAAAAAAAAAAAAAAAAAAAAAAAAAAAAAAAAAAAAAAAAAAAAAAAAAAAAAAAAAAAAAAAAAAAAAAAAAAAAAAAAAAAAAAAAAAAAAAAAAAAAAAAAAAAAAAAAAAAAAAAAAAPZYQFry8qyNNN/H33Q0KTCJ8nyEkBZzDXwyifB1UafJc992n4zP/aJNWYiXzkpd9IdBqpTse3RWozlRRrVwkcxYkow=</c2pa:manifest></metadata>
  <defs><linearGradient id="bg" x1="0" y1="0" x2="0" y2="1"><stop offset="0" stop-color="#1C3A32"/><stop offset="1" stop-color="#0E211C"/></linearGradient>
  <clipPath id="note"><rect x="142.0" y="126.0" width="228.0" height="150.0" rx="14.0"/></clipPath></defs>
  <rect width="512" height="512" rx="0" fill="url(#bg)"/>
  <path d="M0.0 76.0 L8.0 82.1 L16.0 86.7 L24.0 88.7 L32.0 88.1 L40.0 85.8 L48.0 83.0 L56.0 80.8 L64.0 79.7 L72.0 79.4 L80.0 79.0 L88.0 77.5 L96.0 74.4 L104.0 69.9 L112.0 65.2 L120.0 61.8 L128.0 60.8 L136.0 62.9 L144.0 67.4 L152.0 73.2 L160.0 78.5 L168.0 82.2 L176.0 83.9 L184.0 83.8 L192.0 83.0 L200.0 82.5 L208.0 83.0 L216.0 84.2 L224.0 85.2 L232.0 84.9 L240.0 82.5 L248.0 77.9 L256.0 72.0 L264.0 66.3 L272.0 62.3 L280.0 61.2 L288.0 62.9 L296.0 66.6 L304.0 70.9 L312.0 74.5 L320.0 76.7 L328.0 77.6 L336.0 78.0 L344.0 78.8 L352.0 80.8 L360.0 83.9 L368.0 87.2 L376.0 89.3 L384.0 89.2 L392.0 86.3 L400.0 81.1 L408.0 74.8 L416.0 69.1 L424.0 65.4 L432.0 64.3 L440.0 65.3 L448.0 67.5 L456.0 69.6 L464.0 70.8 L472.0 71.1 L480.0 71.0 L488.0 71.8 L496.0 74.1 L504.0 78.1 L512.0 83.2" fill="none" stroke="#C9A04A" stroke-opacity="0.10" stroke-width="2.4"/><path d="M0.0 110.3 L8.0 115.2 L16.0 119.4 L24.0 121.3 L32.0 120.2 L40.0 116.4 L48.0 111.0 L56.0 105.6 L64.0 101.4 L72.0 99.2 L80.0 98.8 L88.0 99.4 L96.0 99.7 L104.0 99.2 L112.0 97.8 L120.0 96.4 L128.0 96.1 L136.0 97.8 L144.0 101.9 L152.0 107.7 L160.0 113.7 L168.0 118.4 L176.0 120.5 L184.0 119.7 L192.0 116.7 L200.0 112.7 L208.0 109.0 L216.0 106.6 L224.0 105.5 L232.0 105.0 L240.0 104.3 L248.0 102.4 L256.0 99.3 L264.0 95.7 L272.0 92.8 L280.0 92.0 L288.0 94.1 L296.0 98.7 L304.0 104.8 L312.0 110.7 L320.0 115.1 L328.0 117.0 L336.0 116.7 L344.0 114.9 L352.0 113.0 L360.0 111.8 L368.0 111.6 L376.0 111.8 L384.0 111.5 L392.0 109.6 L400.0 105.8 L408.0 100.7 L416.0 95.5 L424.0 91.7 L432.0 90.6 L440.0 92.5 L448.0 96.8 L456.0 102.1 L464.0 106.9 L472.0 110.1 L480.0 111.5 L488.0 111.6 L496.0 111.5 L504.0 112.0 L512.0 113.5" fill="none" stroke="#C9A04A" stroke-opacity="0.10" stroke-width="2.4"/><path d="M0.0 142.5 L8.0 144.0 L16.0 145.8 L24.0 146.7 L32.0 145.7 L40.0 142.2 L48.0 136.7 L56.0 130.5 L64.0 125.2 L72.0 122.2 L80.0 122.0 L88.0 124.3 L96.0 128.0 L104.0 131.6 L112.0 134.2 L120.0 135.5 L128.0 135.9 L136.0 136.6 L144.0 138.3 L152.0 141.4 L160.0 145.2 L168.0 148.7 L176.0 150.3 L184.0 149.3 L192.0 145.4 L200.0 139.7 L208.0 133.5 L216.0 128.6 L224.0 125.9 L232.0 125.6 L240.0 126.9 L248.0 128.6 L256.0 129.7 L264.0 129.9 L272.0 129.5 L280.0 129.5 L288.0 130.9 L296.0 134.2 L304.0 139.2 L312.0 144.7 L320.0 149.2 L328.0 151.3 L336.0 150.4 L344.0 146.9 L352.0 141.9 L360.0 137.0 L368.0 133.4 L376.0 131.6 L384.0 131.1 L392.0 131.1 L400.0 130.6 L408.0 129.1 L416.0 126.8 L424.0 124.8 L432.0 124.2 L440.0 126.1 L448.0 130.4 L456.0 136.4 L464.0 142.6 L472.0 147.3 L480.0 149.5 L488.0 148.9 L496.0 146.3 L504.0 143.0 L512.0 140.2" fill="none" stroke="#C9A04A" stroke-opacity="0.10" stroke-width="2.4"/><path d="M0.0 171.7 L8.0 169.0 L16.0 167.6 L24.0 167.1 L32.0 166.5 L40.0 165.0 L48.0 162.1 L56.0 158.1 L64.0 154.1 L72.0 151.7 L80.0 151.8 L88.0 154.8 L96.0 160.0 L104.0 166.1 L112.0 171.4 L120.0 174.8 L128.0 175.8 L136.0 175.1 L144.0 173.6 L152.0 172.6 L160.0 172.5 L168.0 173.0 L176.0 173.4 L184.0 172.5 L192.0 169.7 L200.0 164.9 L208.0 159.3 L216.0 154.2 L224.0 151.1 L232.0 151.0 L240.0 153.8 L248.0 158.3 L256.0 163.1 L264.0 167.0 L272.0 169.2 L280.0 170.0 L288.0 170.1 L296.0 170.6 L304.0 172.2 L312.0 174.6 L320.0 177.1 L328.0 178.4 L336.0 177.3 L344.0 173.7 L352.0 168.0 L360.0 161.7 L368.0 156.4 L376.0 153.4 L384.0 153.1 L392.0 155.0 L400.0 158.0 L408.0 160.7 L416.0 162.4 L424.0 163.1 L432.0 163.4 L440.0 164.3 L448.0 166.7 L456.0 170.6 L464.0 175.2 L472.0 179.1 L480.0 181.0 L488.0 180.1 L496.0 176.3 L504.0 170.7 L512.0 165.0" fill="none" stroke="#C9A04A" stroke-opacity="0.10" stroke-width="2.4"/><path d="M0.0 198.2 L8.0 192.6 L16.0 188.7 L24.0 187.0 L32.0 187.2 L40.0 188.3 L48.0 189.3 L56.0 189.3 L64.0 188.6 L72.0 187.9 L80.0 188.2 L88.0 190.5 L96.0 194.9 L104.0 200.6 L112.0 206.1 L120.0 210.0 L128.0 211.1 L136.0 209.3 L144.0 205.4 L152.0 200.7 L160.0 196.6 L168.0 194.1 L176.0 193.0 L184.0 192.7 L192.0 192.2 L200.0 190.7 L208.0 188.1 L216.0 185.3 L224.0 183.3 L232.0 183.5 L240.0 186.4 L248.0 191.6 L256.0 197.9 L264.0 203.6 L272.0 207.4 L280.0 208.6 L288.0 207.4 L296.0 204.8 L304.0 202.2 L312.0 200.5 L320.0 199.8 L328.0 199.6 L336.0 198.9 L344.0 196.9 L352.0 193.2 L360.0 188.5 L368.0 183.9 L376.0 181.2 L384.0 181.1 L392.0 184.0 L400.0 189.1 L408.0 194.8 L416.0 199.7 L424.0 202.8 L432.0 203.7 L440.0 203.3 L448.0 202.6 L456.0 202.6 L464.0 203.4 L472.0 204.8 L480.0 205.5 L488.0 204.6 L496.0 201.4 L504.0 196.2 L512.0 190.2" fill="none" stroke="#C9A04A" stroke-opacity="0.10" stroke-width="2.4"/><path d="M0.0 223.7 L8.0 217.8 L16.0 213.2 L24.0 211.1 L32.0 212.0 L40.0 215.2 L48.0 219.6 L56.0 223.7 L64.0 226.6 L72.0 227.9 L80.0 228.3 L88.0 228.8 L96.0 230.3 L104.0 232.9 L112.0 236.1 L120.0 238.6 L128.0 239.3 L136.0 237.3 L144.0 232.7 L152.0 226.6 L160.0 220.5 L168.0 216.0 L176.0 214.0 L184.0 214.5 L192.0 216.6 L200.0 219.0 L208.0 220.7 L216.0 221.4 L224.0 221.5 L232.0 221.9 L240.0 223.6 L248.0 227.0 L256.0 231.7 L264.0 236.7 L272.0 240.3 L280.0 241.3 L288.0 239.3 L296.0 234.9 L304.0 229.3 L312.0 224.2 L320.0 220.7 L328.0 219.2 L336.0 219.2 L344.0 219.7 L352.0 219.7 L360.0 218.7 L368.0 217.2 L376.0 215.9 L384.0 216.2 L392.0 218.7 L400.0 223.5 L408.0 229.5 L416.0 235.3 L424.0 239.3 L432.0 240.5 L440.0 238.9 L448.0 235.5 L456.0 231.5 L464.0 228.2 L472.0 226.3 L480.0 225.6 L488.0 225.1 L496.0 224.0 L504.0 221.6 L512.0 218.2" fill="none" stroke="#C9A04A" stroke-opacity="0.10" stroke-width="2.4"/><path d="M0.0 250.2 L8.0 246.8 L16.0 243.7 L24.0 242.2 L32.0 243.3 L40.0 247.2 L48.0 253.0 L56.0 259.2 L64.0 264.3 L72.0 267.0 L80.0 267.3 L88.0 265.8 L96.0 263.6 L104.0 261.9 L112.0 261.3 L120.0 261.3 L128.0 261.2 L136.0 259.9 L144.0 256.9 L152.0 252.2 L160.0 247.0 L168.0 242.7 L176.0 240.7 L184.0 241.6 L192.0 245.3 L200.0 250.6 L208.0 255.8 L216.0 259.7 L224.0 261.8 L232.0 262.2 L240.0 261.9 L248.0 261.9 L256.0 262.9 L264.0 264.7 L272.0 266.4 L280.0 266.8 L288.0 265.0 L296.0 260.8 L304.0 254.9 L312.0 248.8 L320.0 244.1 L328.0 241.9 L336.0 242.6 L344.0 245.4 L352.0 249.1 L360.0 252.4 L368.0 254.5 L376.0 255.4 L384.0 255.8 L392.0 256.8 L400.0 259.0 L408.0 262.5 L416.0 266.5 L424.0 269.5 L432.0 270.4 L440.0 268.4 L448.0 263.8 L456.0 257.8 L464.0 251.9 L472.0 247.7 L480.0 245.8 L488.0 246.0 L496.0 247.5 L504.0 249.1 L512.0 249.8" fill="none" stroke="#C9A04A" stroke-opacity="0.10" stroke-width="2.4"/><path d="M0.0 279.5 L8.0 280.2 L16.0 280.0 L24.0 279.8 L32.0 280.7 L40.0 283.3 L48.0 287.8 L56.0 293.2 L64.0 298.1 L72.0 301.0 L80.0 301.0 L88.0 298.2 L96.0 293.4 L104.0 288.2 L112.0 284.0 L120.0 281.5 L128.0 280.7 L136.0 280.7 L144.0 280.6 L152.0 279.6 L160.0 277.7 L168.0 275.6 L176.0 274.5 L184.0 275.5 L192.0 279.1 L200.0 284.7 L208.0 291.0 L216.0 296.3 L224.0 299.3 L232.0 299.6 L240.0 297.4 L248.0 294.1 L256.0 290.8 L264.0 288.6 L272.0 287.6 L280.0 287.2 L288.0 286.4 L296.0 284.4 L304.0 281.0 L312.0 276.8 L320.0 273.1 L328.0 271.3 L336.0 272.3 L344.0 276.2 L352.0 281.8 L360.0 287.8 L368.0 292.6 L376.0 295.2 L384.0 295.6 L392.0 294.5 L400.0 293.2 L408.0 292.5 L416.0 292.7 L424.0 293.4 L432.0 293.5 L440.0 292.1 L448.0 288.5 L456.0 283.3 L464.0 277.6 L472.0 273.0 L480.0 270.8 L488.0 271.6 L496.0 275.0 L504.0 279.8 L512.0 284.4" fill="none" stroke="#C9A04A" stroke-opacity="0.10" stroke-width="2.4"/><path d="M0.0 311.8 L8.0 316.3 L16.0 319.2 L24.0 320.4 L32.0 320.5 L40.0 320.7 L48.0 321.7 L56.0 323.7 L64.0 326.2 L72.0 327.9 L80.0 327.6 L88.0 324.8 L96.0 319.7 L104.0 313.4 L112.0 307.6 L120.0 303.8 L128.0 302.6 L136.0 304.0 L144.0 306.9 L152.0 310.0 L160.0 312.3 L168.0 313.4 L176.0 313.8 L184.0 314.4 L192.0 316.1 L200.0 319.4 L208.0 323.8 L216.0 328.0 L224.0 330.6 L232.0 330.6 L240.0 327.6 L248.0 322.4 L256.0 316.5 L264.0 311.3 L272.0 308.1 L280.0 307.1 L288.0 307.7 L296.0 308.8 L304.0 309.4 L312.0 309.1 L320.0 308.2 L328.0 307.6 L336.0 308.5 L344.0 311.5 L352.0 316.5 L360.0 322.3 L368.0 327.5 L376.0 330.6 L384.0 330.8 L392.0 328.2 L400.0 323.9 L408.0 319.4 L416.0 315.8 L424.0 313.8 L432.0 313.1 L440.0 312.9 L448.0 312.0 L456.0 310.0 L464.0 307.2 L472.0 304.4 L480.0 303.0 L488.0 304.0 L496.0 307.7 L504.0 313.4 L512.0 319.7" fill="none" stroke="#C9A04A" stroke-opacity="0.10" stroke-width="2.4"/><path d="M0.0 346.1 L8.0 352.2 L16.0 356.8 L24.0 358.8 L32.0 358.2 L40.0 355.9 L48.0 353.0 L56.0 350.7 L64.0 349.5 L72.0 349.2 L80.0 348.8 L88.0 347.3 L96.0 344.2 L104.0 339.9 L112.0 335.2 L120.0 331.8 L128.0 330.9 L136.0 332.9 L144.0 337.5 L152.0 343.3 L160.0 348.7 L168.0 352.4 L176.0 354.1 L184.0 354.0 L192.0 353.1 L200.0 352.6 L208.0 353.0 L216.0 354.1 L224.0 355.0 L232.0 354.7 L240.0 352.3 L248.0 347.8 L256.0 341.9 L264.0 336.2 L272.0 332.3 L280.0 331.1 L288.0 332.8 L296.0 336.5 L304.0 340.9 L312.0 344.6 L320.0 346.9 L328.0 347.8 L336.0 348.2 L344.0 349.0 L352.0 350.9 L360.0 353.9 L368.0 357.1 L376.0 359.2 L384.0 359.1 L392.0 356.2 L400.0 351.0 L408.0 344.7 L416.0 339.0 L424.0 335.3 L432.0 334.1 L440.0 335.1 L448.0 337.4 L456.0 339.6 L464.0 340.9 L472.0 341.3 L480.0 341.3 L488.0 342.0 L496.0 344.3 L504.0 348.3 L512.0 353.3" fill="none" stroke="#C9A04A" stroke-opacity="0.10" stroke-width="2.4"/><path d="M0.0 380.3 L8.0 385.3 L16.0 389.4 L24.0 391.3 L32.0 390.2 L40.0 386.4 L48.0 381.0 L56.0 375.4 L64.0 371.2 L72.0 369.0 L80.0 368.6 L88.0 369.2 L96.0 369.6 L104.0 369.2 L112.0 367.9 L120.0 366.5 L128.0 366.2 L136.0 368.0 L144.0 372.0 L152.0 377.8 L160.0 383.8 L168.0 388.5 L176.0 390.6 L184.0 389.8 L192.0 386.7 L200.0 382.6 L208.0 378.9 L216.0 376.4 L224.0 375.2 L232.0 374.8 L240.0 374.1 L248.0 372.3 L256.0 369.3 L264.0 365.7 L272.0 362.9 L280.0 362.2 L288.0 364.2 L296.0 368.8 L304.0 374.9 L312.0 380.9 L320.0 385.3 L328.0 387.2 L336.0 386.9 L344.0 385.0 L352.0 383.0 L360.0 381.7 L368.0 381.4 L376.0 381.6 L384.0 381.2 L392.0 379.4 L400.0 375.7 L408.0 370.6 L416.0 365.5 L424.0 361.7 L432.0 360.6 L440.0 362.5 L448.0 366.8 L456.0 372.2 L464.0 377.1 L472.0 380.4 L480.0 381.8 L488.0 381.9 L496.0 381.6 L504.0 382.1 L512.0 383.5" fill="none" stroke="#C9A04A" stroke-opacity="0.10" stroke-width="2.4"/><path d="M0.0 412.5 L8.0 413.9 L16.0 415.6 L24.0 416.5 L32.0 415.5 L40.0 412.0 L48.0 406.6 L56.0 400.4 L64.0 395.1 L72.0 392.1 L80.0 391.9 L88.0 394.3 L96.0 398.0 L104.0 401.7 L112.0 404.4 L120.0 405.7 L128.0 406.2 L136.0 406.8 L144.0 408.5 L152.0 411.5 L160.0 415.2 L168.0 418.6 L176.0 420.2 L184.0 419.2 L192.0 415.3 L200.0 409.6 L208.0 403.4 L216.0 398.5 L224.0 395.8 L232.0 395.4 L240.0 396.7 L248.0 398.5 L256.0 399.8 L264.0 400.1 L272.0 399.7 L280.0 399.7 L288.0 401.1 L296.0 404.4 L304.0 409.3 L312.0 414.8 L320.0 419.2 L328.0 421.3 L336.0 420.4 L344.0 416.9 L352.0 411.8 L360.0 406.9 L368.0 403.2 L376.0 401.3 L384.0 400.9 L392.0 401.0 L400.0 400.5 L408.0 399.1 L416.0 396.9 L424.0 394.9 L432.0 394.4 L440.0 396.2 L448.0 400.6 L456.0 406.5 L464.0 412.7 L472.0 417.4 L480.0 419.6 L488.0 419.0 L496.0 416.4 L504.0 413.0 L512.0 410.1" fill="none" stroke="#C9A04A" stroke-opacity="0.10" stroke-width="2.4"/><path d="M0.0 441.6 L8.0 438.9 L16.0 437.4 L24.0 436.8 L32.0 436.3 L40.0 434.8 L48.0 432.0 L56.0 428.1 L64.0 424.2 L72.0 421.7 L80.0 421.9 L88.0 424.9 L96.0 430.1 L104.0 436.2 L112.0 441.6 L120.0 445.0 L128.0 446.0 L136.0 445.3 L144.0 443.7 L152.0 442.6 L160.0 442.3 L168.0 442.8 L176.0 443.2 L184.0 442.3 L192.0 439.5 L200.0 434.8 L208.0 429.2 L216.0 424.1 L224.0 421.1 L232.0 421.0 L240.0 423.7 L248.0 428.3 L256.0 433.2 L264.0 437.2 L272.0 439.5 L280.0 440.2 L288.0 440.3 L296.0 440.8 L304.0 442.2 L312.0 444.6 L320.0 447.0 L328.0 448.2 L336.0 447.2 L344.0 443.6 L352.0 437.9 L360.0 431.6 L368.0 426.3 L376.0 423.3 L384.0 423.0 L392.0 424.9 L400.0 428.0 L408.0 430.8 L416.0 432.6 L424.0 433.3 L432.0 433.6 L440.0 434.5 L448.0 436.9 L456.0 440.7 L464.0 445.2 L472.0 449.1 L480.0 451.0 L488.0 450.0 L496.0 446.2 L504.0 440.7 L512.0 434.8" fill="none" stroke="#C9A04A" stroke-opacity="0.10" stroke-width="2.4"/>
  <rect x="142.0" y="126.0" width="228.0" height="150.0" rx="14.0" fill="#F3F0E4"/>
  <g clip-path="url(#note)"><path d="M158.0 177.7 L164.0 179.5 L170.0 180.7 L176.0 181.3 L182.0 181.3 L188.0 181.0 L194.0 180.7 L200.0 180.6 L206.0 180.7 L212.0 181.1 L218.0 181.7 L224.0 182.0 L230.0 182.0 L236.0 181.4 L242.0 180.0 L248.0 178.0 L254.0 175.6 L260.0 173.2 L266.0 171.0 L272.0 169.6 L278.0 168.9 L284.0 169.2 L290.0 170.3 L296.0 171.8 L302.0 173.6 L308.0 175.3 L314.0 176.6 L320.0 177.4 L326.0 177.8 L332.0 178.0 L338.0 178.1 L344.0 178.5 L350.0 179.3" fill="none" stroke="#C9A04A" stroke-opacity="0.42" stroke-width="4.0" stroke-linecap="round"/><path d="M158.0 211.4 L164.0 213.2 L170.0 214.6 L176.0 215.3 L182.0 215.0 L188.0 213.8 L194.0 211.9 L200.0 209.6 L206.0 207.2 L212.0 205.2 L218.0 203.7 L224.0 202.8 L230.0 202.6 L236.0 202.8 L242.0 203.1 L248.0 203.4 L254.0 203.4 L260.0 203.1 L266.0 202.6 L272.0 202.1 L278.0 202.0 L284.0 202.3 L290.0 203.3 L296.0 205.0 L302.0 207.3 L308.0 209.8 L314.0 212.1 L320.0 213.9 L326.0 214.9 L332.0 215.1 L338.0 214.3 L344.0 212.9 L350.0 211.2" fill="none" stroke="#C9A04A" stroke-opacity="0.32" stroke-width="4.0" stroke-linecap="round"/><path d="M158.0 239.5 L164.0 239.0 L170.0 238.8 L176.0 238.7 L182.0 238.5 L188.0 237.9 L194.0 236.9 L200.0 235.3 L206.0 233.5 L212.0 231.5 L218.0 229.9 L224.0 228.9 L230.0 228.8 L236.0 229.6 L242.0 231.2 L248.0 233.3 L254.0 235.7 L260.0 238.0 L266.0 239.8 L272.0 240.9 L278.0 241.4 L284.0 241.4 L290.0 241.1 L296.0 240.7 L302.0 240.6 L308.0 240.7 L314.0 241.1 L320.0 241.6 L326.0 242.0 L332.0 241.9 L338.0 241.2 L344.0 239.8 L350.0 237.7" fill="none" stroke="#C9A04A" stroke-opacity="0.22" stroke-width="4.0" stroke-linecap="round"/></g>
  <path d="M100.0 376.0 L100.0 226.0 L256.0 300.0 L412.0 226.0 L412.0 376.0 Z"
        fill="#C9A04A" stroke="#C9A04A" stroke-width="2.0" stroke-linejoin="round"/>
  <path d="M100.0 226.0 L256.0 300.0 L412.0 226.0" fill="none" stroke="#0E211C" stroke-opacity="0.22" stroke-width="6.0" stroke-linejoin="round" stroke-linecap="round"/>
</svg>